<mxfile host="Electron" agent="Mozilla/5.0 (Macintosh; Intel Mac OS X 10_15_7) AppleWebKit/537.36 (KHTML, like Gecko) draw.io/25.0.2 Chrome/128.0.6613.186 Electron/32.2.5 Safari/537.36" version="25.0.2">
  <diagram id="C5RBs43oDa-KdzZeNtuy" name="Page-1">
    <mxGraphModel dx="3011" dy="1720" grid="1" gridSize="10" guides="1" tooltips="1" connect="1" arrows="1" fold="1" page="1" pageScale="1" pageWidth="827" pageHeight="1169" math="0" shadow="0">
      <root>
        <mxCell id="WIyWlLk6GJQsqaUBKTNV-0" />
        <mxCell id="WIyWlLk6GJQsqaUBKTNV-1" parent="WIyWlLk6GJQsqaUBKTNV-0" />
        <mxCell id="74lIT181JPH_ULcOrl8A-4" value="" style="endArrow=classic;html=1;rounded=0;edgeStyle=orthogonalEdgeStyle;exitX=1;exitY=0.5;exitDx=0;exitDy=0;entryX=1;entryY=0.25;entryDx=0;entryDy=0;" edge="1" parent="WIyWlLk6GJQsqaUBKTNV-1" source="O3ppCup09V5jgGHMYTmA-45" target="O3ppCup09V5jgGHMYTmA-39">
          <mxGeometry width="50" height="50" relative="1" as="geometry">
            <mxPoint x="950" y="690" as="sourcePoint" />
            <mxPoint x="1200" y="490" as="targetPoint" />
            <Array as="points">
              <mxPoint x="1190" y="790" />
              <mxPoint x="1190" y="355" />
            </Array>
          </mxGeometry>
        </mxCell>
        <mxCell id="WIyWlLk6GJQsqaUBKTNV-2" value="" style="rounded=0;html=1;jettySize=auto;orthogonalLoop=1;fontSize=15;endArrow=block;endFill=0;endSize=8;strokeWidth=1;shadow=0;labelBackgroundColor=none;edgeStyle=orthogonalEdgeStyle;" parent="WIyWlLk6GJQsqaUBKTNV-1" source="WIyWlLk6GJQsqaUBKTNV-3" target="WIyWlLk6GJQsqaUBKTNV-6" edge="1">
          <mxGeometry relative="1" as="geometry" />
        </mxCell>
        <mxCell id="WIyWlLk6GJQsqaUBKTNV-3" value="i=0,l=0,&lt;div&gt;row=0,col=0&lt;/div&gt;" style="rounded=1;whiteSpace=wrap;html=1;fontSize=15;glass=0;strokeWidth=1;shadow=0;" parent="WIyWlLk6GJQsqaUBKTNV-1" vertex="1">
          <mxGeometry x="160" y="80" width="120" height="40" as="geometry" />
        </mxCell>
        <mxCell id="WIyWlLk6GJQsqaUBKTNV-5" value="No" style="edgeStyle=orthogonalEdgeStyle;rounded=0;html=1;jettySize=auto;orthogonalLoop=1;fontSize=15;endArrow=block;endFill=0;endSize=8;strokeWidth=1;shadow=0;labelBackgroundColor=none;entryX=0.5;entryY=0;entryDx=0;entryDy=0;" parent="WIyWlLk6GJQsqaUBKTNV-1" source="WIyWlLk6GJQsqaUBKTNV-6" target="O3ppCup09V5jgGHMYTmA-0" edge="1">
          <mxGeometry x="-0.8" y="-10" relative="1" as="geometry">
            <mxPoint as="offset" />
            <mxPoint x="150" y="100" as="targetPoint" />
          </mxGeometry>
        </mxCell>
        <mxCell id="WIyWlLk6GJQsqaUBKTNV-6" value="Calculate?" style="rhombus;whiteSpace=wrap;html=1;shadow=0;fontFamily=Helvetica;fontSize=15;align=center;strokeWidth=1;spacing=6;spacingTop=-4;" parent="WIyWlLk6GJQsqaUBKTNV-1" vertex="1">
          <mxGeometry x="170" y="170" width="100" height="80" as="geometry" />
        </mxCell>
        <mxCell id="WIyWlLk6GJQsqaUBKTNV-11" value="row=0" style="rounded=1;whiteSpace=wrap;html=1;fontSize=15;glass=0;strokeWidth=1;shadow=0;" parent="WIyWlLk6GJQsqaUBKTNV-1" vertex="1">
          <mxGeometry x="160" y="430" width="120" height="40" as="geometry" />
        </mxCell>
        <mxCell id="WIyWlLk6GJQsqaUBKTNV-12" value="j=k-1" style="rounded=1;whiteSpace=wrap;html=1;fontSize=15;glass=0;strokeWidth=1;shadow=0;" parent="WIyWlLk6GJQsqaUBKTNV-1" vertex="1">
          <mxGeometry x="160" y="280" width="120" height="40" as="geometry" />
        </mxCell>
        <mxCell id="CgVU10pBGHFMZxcEaCjF-0" value="S0" style="text;html=1;align=center;verticalAlign=middle;resizable=0;points=[];autosize=1;strokeColor=none;fillColor=none;fontSize=15;" parent="WIyWlLk6GJQsqaUBKTNV-1" vertex="1">
          <mxGeometry x="280" y="85" width="40" height="30" as="geometry" />
        </mxCell>
        <mxCell id="CgVU10pBGHFMZxcEaCjF-1" value="S1" style="text;html=1;align=center;verticalAlign=middle;resizable=0;points=[];autosize=1;strokeColor=none;fillColor=none;fontSize=15;" parent="WIyWlLk6GJQsqaUBKTNV-1" vertex="1">
          <mxGeometry x="280" y="285" width="40" height="30" as="geometry" />
        </mxCell>
        <mxCell id="CgVU10pBGHFMZxcEaCjF-4" value="&lt;font&gt;Yes&lt;/font&gt;" style="text;html=1;align=center;verticalAlign=middle;resizable=0;points=[];autosize=1;strokeColor=none;fillColor=none;fontSize=15;" parent="WIyWlLk6GJQsqaUBKTNV-1" vertex="1">
          <mxGeometry x="205" y="240" width="50" height="30" as="geometry" />
        </mxCell>
        <mxCell id="CgVU10pBGHFMZxcEaCjF-5" value="" style="rounded=0;html=1;jettySize=auto;orthogonalLoop=1;fontSize=15;endArrow=block;endFill=0;endSize=8;strokeWidth=1;shadow=0;labelBackgroundColor=none;edgeStyle=orthogonalEdgeStyle;" parent="WIyWlLk6GJQsqaUBKTNV-1" edge="1">
          <mxGeometry relative="1" as="geometry">
            <mxPoint x="219.86" y="249" as="sourcePoint" />
            <mxPoint x="220" y="280" as="targetPoint" />
          </mxGeometry>
        </mxCell>
        <mxCell id="CgVU10pBGHFMZxcEaCjF-6" value="l=0" style="rounded=1;whiteSpace=wrap;html=1;fontSize=15;glass=0;strokeWidth=1;shadow=0;" parent="WIyWlLk6GJQsqaUBKTNV-1" vertex="1">
          <mxGeometry x="160" y="351" width="120" height="40" as="geometry" />
        </mxCell>
        <mxCell id="CgVU10pBGHFMZxcEaCjF-7" value="S2" style="text;html=1;align=center;verticalAlign=middle;resizable=0;points=[];autosize=1;strokeColor=none;fillColor=none;fontSize=15;" parent="WIyWlLk6GJQsqaUBKTNV-1" vertex="1">
          <mxGeometry x="280" y="356" width="40" height="30" as="geometry" />
        </mxCell>
        <mxCell id="CgVU10pBGHFMZxcEaCjF-9" value="" style="rounded=0;html=1;jettySize=auto;orthogonalLoop=1;fontSize=15;endArrow=block;endFill=0;endSize=8;strokeWidth=1;shadow=0;labelBackgroundColor=none;edgeStyle=orthogonalEdgeStyle;" parent="WIyWlLk6GJQsqaUBKTNV-1" edge="1">
          <mxGeometry relative="1" as="geometry">
            <mxPoint x="219.86" y="320" as="sourcePoint" />
            <mxPoint x="220" y="351" as="targetPoint" />
          </mxGeometry>
        </mxCell>
        <mxCell id="CgVU10pBGHFMZxcEaCjF-12" value="" style="rounded=0;html=1;jettySize=auto;orthogonalLoop=1;fontSize=15;endArrow=block;endFill=0;endSize=8;strokeWidth=1;shadow=0;labelBackgroundColor=none;edgeStyle=orthogonalEdgeStyle;entryX=0.5;entryY=0;entryDx=0;entryDy=0;" parent="WIyWlLk6GJQsqaUBKTNV-1" target="WIyWlLk6GJQsqaUBKTNV-11" edge="1">
          <mxGeometry relative="1" as="geometry">
            <mxPoint x="220" y="391" as="sourcePoint" />
            <mxPoint x="221" y="422" as="targetPoint" />
          </mxGeometry>
        </mxCell>
        <mxCell id="CgVU10pBGHFMZxcEaCjF-13" value="S3" style="text;html=1;align=center;verticalAlign=middle;resizable=0;points=[];autosize=1;strokeColor=none;fillColor=none;fontSize=15;" parent="WIyWlLk6GJQsqaUBKTNV-1" vertex="1">
          <mxGeometry x="280" y="435" width="40" height="30" as="geometry" />
        </mxCell>
        <mxCell id="CgVU10pBGHFMZxcEaCjF-14" value="GF&lt;sub&gt;16&lt;/sub&gt;&amp;nbsp;Mul &amp;amp; Add" style="rounded=1;whiteSpace=wrap;html=1;fontSize=15;glass=0;strokeWidth=1;shadow=0;" parent="WIyWlLk6GJQsqaUBKTNV-1" vertex="1">
          <mxGeometry x="160" y="509" width="120" height="40" as="geometry" />
        </mxCell>
        <mxCell id="CgVU10pBGHFMZxcEaCjF-15" value="" style="rounded=0;html=1;jettySize=auto;orthogonalLoop=1;fontSize=15;endArrow=block;endFill=0;endSize=8;strokeWidth=1;shadow=0;labelBackgroundColor=none;edgeStyle=orthogonalEdgeStyle;entryX=0.5;entryY=0;entryDx=0;entryDy=0;" parent="WIyWlLk6GJQsqaUBKTNV-1" target="CgVU10pBGHFMZxcEaCjF-14" edge="1">
          <mxGeometry relative="1" as="geometry">
            <mxPoint x="220" y="470" as="sourcePoint" />
            <mxPoint x="221" y="501" as="targetPoint" />
          </mxGeometry>
        </mxCell>
        <mxCell id="CgVU10pBGHFMZxcEaCjF-16" value="S4" style="text;html=1;align=center;verticalAlign=middle;resizable=0;points=[];autosize=1;strokeColor=none;fillColor=none;fontSize=15;" parent="WIyWlLk6GJQsqaUBKTNV-1" vertex="1">
          <mxGeometry x="280" y="514" width="40" height="30" as="geometry" />
        </mxCell>
        <mxCell id="CgVU10pBGHFMZxcEaCjF-18" value="" style="rounded=0;html=1;jettySize=auto;orthogonalLoop=1;fontSize=15;endArrow=block;endFill=0;endSize=8;strokeWidth=1;shadow=0;labelBackgroundColor=none;edgeStyle=orthogonalEdgeStyle;entryX=0.5;entryY=0;entryDx=0;entryDy=0;" parent="WIyWlLk6GJQsqaUBKTNV-1" edge="1">
          <mxGeometry relative="1" as="geometry">
            <mxPoint x="220" y="549" as="sourcePoint" />
            <mxPoint x="220" y="588" as="targetPoint" />
          </mxGeometry>
        </mxCell>
        <mxCell id="CgVU10pBGHFMZxcEaCjF-20" value="row=n-1" style="rhombus;whiteSpace=wrap;html=1;shadow=0;fontFamily=Helvetica;fontSize=15;align=center;strokeWidth=1;spacing=6;spacingTop=-4;" parent="WIyWlLk6GJQsqaUBKTNV-1" vertex="1">
          <mxGeometry x="170" y="590" width="100" height="80" as="geometry" />
        </mxCell>
        <mxCell id="CgVU10pBGHFMZxcEaCjF-22" value="" style="rounded=0;html=1;jettySize=auto;orthogonalLoop=1;fontSize=15;endArrow=block;endFill=0;endSize=8;strokeWidth=1;shadow=0;labelBackgroundColor=none;edgeStyle=orthogonalEdgeStyle;entryX=0;entryY=0.5;entryDx=0;entryDy=0;exitX=0;exitY=0.5;exitDx=0;exitDy=0;" parent="WIyWlLk6GJQsqaUBKTNV-1" source="CgVU10pBGHFMZxcEaCjF-20" target="CgVU10pBGHFMZxcEaCjF-14" edge="1">
          <mxGeometry relative="1" as="geometry">
            <mxPoint x="130" y="686.5" as="sourcePoint" />
            <mxPoint x="80" y="530" as="targetPoint" />
            <Array as="points">
              <mxPoint x="100" y="630" />
              <mxPoint x="100" y="529" />
            </Array>
          </mxGeometry>
        </mxCell>
        <mxCell id="CgVU10pBGHFMZxcEaCjF-24" value="row++" style="ellipse;whiteSpace=wrap;html=1;fontSize=15;" parent="WIyWlLk6GJQsqaUBKTNV-1" vertex="1">
          <mxGeometry x="50" y="544" width="90" height="55" as="geometry" />
        </mxCell>
        <mxCell id="CgVU10pBGHFMZxcEaCjF-25" value="No" style="text;html=1;align=center;verticalAlign=middle;resizable=0;points=[];autosize=1;strokeColor=none;fillColor=none;fontSize=15;" parent="WIyWlLk6GJQsqaUBKTNV-1" vertex="1">
          <mxGeometry x="120" y="602" width="40" height="30" as="geometry" />
        </mxCell>
        <mxCell id="CgVU10pBGHFMZxcEaCjF-26" value="" style="rounded=0;html=1;jettySize=auto;orthogonalLoop=1;fontSize=15;endArrow=block;endFill=0;endSize=8;strokeWidth=1;shadow=0;labelBackgroundColor=none;edgeStyle=orthogonalEdgeStyle;entryX=0.5;entryY=0;entryDx=0;entryDy=0;" parent="WIyWlLk6GJQsqaUBKTNV-1" edge="1">
          <mxGeometry relative="1" as="geometry">
            <mxPoint x="219.41000000000003" y="670" as="sourcePoint" />
            <mxPoint x="219.41000000000003" y="709" as="targetPoint" />
          </mxGeometry>
        </mxCell>
        <mxCell id="CgVU10pBGHFMZxcEaCjF-27" value="Calc u&lt;sub&gt;l&lt;/sub&gt;" style="rounded=1;whiteSpace=wrap;html=1;fontSize=15;glass=0;strokeWidth=1;shadow=0;" parent="WIyWlLk6GJQsqaUBKTNV-1" vertex="1">
          <mxGeometry x="160" y="710" width="120" height="40" as="geometry" />
        </mxCell>
        <mxCell id="CgVU10pBGHFMZxcEaCjF-28" value="S5" style="text;html=1;align=center;verticalAlign=middle;resizable=0;points=[];autosize=1;strokeColor=none;fillColor=none;fontSize=15;" parent="WIyWlLk6GJQsqaUBKTNV-1" vertex="1">
          <mxGeometry x="280" y="715" width="40" height="30" as="geometry" />
        </mxCell>
        <mxCell id="CgVU10pBGHFMZxcEaCjF-34" value="l=m-1" style="rhombus;whiteSpace=wrap;html=1;shadow=0;fontFamily=Helvetica;fontSize=15;align=center;strokeWidth=1;spacing=6;spacingTop=-4;" parent="WIyWlLk6GJQsqaUBKTNV-1" vertex="1">
          <mxGeometry x="168" y="789" width="100" height="80" as="geometry" />
        </mxCell>
        <mxCell id="CgVU10pBGHFMZxcEaCjF-35" value="" style="rounded=0;html=1;jettySize=auto;orthogonalLoop=1;fontSize=15;endArrow=block;endFill=0;endSize=8;strokeWidth=1;shadow=0;labelBackgroundColor=none;edgeStyle=orthogonalEdgeStyle;entryX=0.5;entryY=0;entryDx=0;entryDy=0;" parent="WIyWlLk6GJQsqaUBKTNV-1" edge="1">
          <mxGeometry relative="1" as="geometry">
            <mxPoint x="219.41000000000003" y="750" as="sourcePoint" />
            <mxPoint x="219.41000000000003" y="789" as="targetPoint" />
          </mxGeometry>
        </mxCell>
        <mxCell id="CgVU10pBGHFMZxcEaCjF-36" value="" style="rounded=0;html=1;jettySize=auto;orthogonalLoop=1;fontSize=15;endArrow=block;endFill=0;endSize=8;strokeWidth=1;shadow=0;labelBackgroundColor=none;edgeStyle=orthogonalEdgeStyle;entryX=0;entryY=0.5;entryDx=0;entryDy=0;exitX=0;exitY=0.5;exitDx=0;exitDy=0;" parent="WIyWlLk6GJQsqaUBKTNV-1" source="CgVU10pBGHFMZxcEaCjF-34" target="WIyWlLk6GJQsqaUBKTNV-11" edge="1">
          <mxGeometry relative="1" as="geometry">
            <mxPoint x="100.07352941176464" y="1067.0588235294117" as="sourcePoint" />
            <mxPoint x="90" y="450" as="targetPoint" />
            <Array as="points">
              <mxPoint x="30" y="829" />
              <mxPoint x="30" y="450" />
            </Array>
          </mxGeometry>
        </mxCell>
        <mxCell id="CgVU10pBGHFMZxcEaCjF-37" value="l++" style="ellipse;whiteSpace=wrap;html=1;fontSize=15;" parent="WIyWlLk6GJQsqaUBKTNV-1" vertex="1">
          <mxGeometry x="-10" y="654" width="90" height="55" as="geometry" />
        </mxCell>
        <mxCell id="CgVU10pBGHFMZxcEaCjF-38" value="No" style="text;html=1;align=center;verticalAlign=middle;resizable=0;points=[];autosize=1;strokeColor=none;fillColor=none;fontSize=15;" parent="WIyWlLk6GJQsqaUBKTNV-1" vertex="1">
          <mxGeometry x="120" y="804" width="40" height="30" as="geometry" />
        </mxCell>
        <mxCell id="CgVU10pBGHFMZxcEaCjF-42" value="Yes" style="text;html=1;align=center;verticalAlign=middle;resizable=0;points=[];autosize=1;strokeColor=none;fillColor=none;fontSize=15;" parent="WIyWlLk6GJQsqaUBKTNV-1" vertex="1">
          <mxGeometry x="208" y="667" width="50" height="30" as="geometry" />
        </mxCell>
        <mxCell id="CgVU10pBGHFMZxcEaCjF-43" value="Yes" style="text;html=1;align=center;verticalAlign=middle;resizable=0;points=[];autosize=1;strokeColor=none;fillColor=none;fontSize=15;" parent="WIyWlLk6GJQsqaUBKTNV-1" vertex="1">
          <mxGeometry x="208" y="869" width="50" height="30" as="geometry" />
        </mxCell>
        <mxCell id="CgVU10pBGHFMZxcEaCjF-44" value="j=i" style="rhombus;whiteSpace=wrap;html=1;shadow=0;fontFamily=Helvetica;fontSize=15;align=center;strokeWidth=1;spacing=6;spacingTop=-4;" parent="WIyWlLk6GJQsqaUBKTNV-1" vertex="1">
          <mxGeometry x="168" y="985" width="100" height="80" as="geometry" />
        </mxCell>
        <mxCell id="CgVU10pBGHFMZxcEaCjF-45" value="" style="rounded=0;html=1;jettySize=auto;orthogonalLoop=1;fontSize=15;endArrow=block;endFill=0;endSize=8;strokeWidth=1;shadow=0;labelBackgroundColor=none;edgeStyle=orthogonalEdgeStyle;entryX=0.5;entryY=0;entryDx=0;entryDy=0;" parent="WIyWlLk6GJQsqaUBKTNV-1" edge="1">
          <mxGeometry relative="1" as="geometry">
            <mxPoint x="218.41000000000003" y="868" as="sourcePoint" />
            <mxPoint x="218.41000000000003" y="907" as="targetPoint" />
          </mxGeometry>
        </mxCell>
        <mxCell id="CgVU10pBGHFMZxcEaCjF-46" value="No" style="text;html=1;align=center;verticalAlign=middle;resizable=0;points=[];autosize=1;strokeColor=none;fillColor=none;fontSize=15;" parent="WIyWlLk6GJQsqaUBKTNV-1" vertex="1">
          <mxGeometry x="124" y="999" width="40" height="30" as="geometry" />
        </mxCell>
        <mxCell id="CgVU10pBGHFMZxcEaCjF-47" value="Yes" style="text;html=1;align=center;verticalAlign=middle;resizable=0;points=[];autosize=1;strokeColor=none;fillColor=none;fontSize=15;" parent="WIyWlLk6GJQsqaUBKTNV-1" vertex="1">
          <mxGeometry x="208" y="1063" width="50" height="30" as="geometry" />
        </mxCell>
        <mxCell id="CgVU10pBGHFMZxcEaCjF-48" value="Calc y=y+Eu" style="rounded=1;whiteSpace=wrap;html=1;fontSize=15;glass=0;strokeWidth=1;shadow=0;" parent="WIyWlLk6GJQsqaUBKTNV-1" vertex="1">
          <mxGeometry x="158" y="907" width="120" height="40" as="geometry" />
        </mxCell>
        <mxCell id="CgVU10pBGHFMZxcEaCjF-49" value="S6" style="text;html=1;align=center;verticalAlign=middle;resizable=0;points=[];autosize=1;strokeColor=none;fillColor=none;fontSize=15;" parent="WIyWlLk6GJQsqaUBKTNV-1" vertex="1">
          <mxGeometry x="278" y="912" width="40" height="30" as="geometry" />
        </mxCell>
        <mxCell id="CgVU10pBGHFMZxcEaCjF-50" value="" style="rounded=0;html=1;jettySize=auto;orthogonalLoop=1;fontSize=15;endArrow=block;endFill=0;endSize=8;strokeWidth=1;shadow=0;labelBackgroundColor=none;edgeStyle=orthogonalEdgeStyle;entryX=0.5;entryY=0;entryDx=0;entryDy=0;" parent="WIyWlLk6GJQsqaUBKTNV-1" edge="1">
          <mxGeometry relative="1" as="geometry">
            <mxPoint x="218.41000000000003" y="947" as="sourcePoint" />
            <mxPoint x="218.41000000000003" y="986" as="targetPoint" />
          </mxGeometry>
        </mxCell>
        <mxCell id="CgVU10pBGHFMZxcEaCjF-51" value="" style="rounded=0;html=1;jettySize=auto;orthogonalLoop=1;fontSize=15;endArrow=block;endFill=0;endSize=8;strokeWidth=1;shadow=0;labelBackgroundColor=none;edgeStyle=orthogonalEdgeStyle;exitX=1.082;exitY=0.924;exitDx=0;exitDy=0;exitPerimeter=0;" parent="WIyWlLk6GJQsqaUBKTNV-1" source="CgVU10pBGHFMZxcEaCjF-46" edge="1">
          <mxGeometry relative="1" as="geometry">
            <mxPoint x="170" y="1100" as="sourcePoint" />
            <mxPoint x="170" y="369.9999999999999" as="targetPoint" />
            <Array as="points">
              <mxPoint x="167" y="1030" />
              <mxPoint x="-40" y="1030" />
              <mxPoint x="-40" y="370" />
            </Array>
          </mxGeometry>
        </mxCell>
        <mxCell id="CgVU10pBGHFMZxcEaCjF-52" value="j--" style="ellipse;whiteSpace=wrap;html=1;fontSize=15;" parent="WIyWlLk6GJQsqaUBKTNV-1" vertex="1">
          <mxGeometry x="-90" y="745" width="90" height="55" as="geometry" />
        </mxCell>
        <mxCell id="CgVU10pBGHFMZxcEaCjF-53" value="i=k-1" style="rhombus;whiteSpace=wrap;html=1;shadow=0;fontFamily=Helvetica;fontSize=15;align=center;strokeWidth=1;spacing=6;spacingTop=-4;" parent="WIyWlLk6GJQsqaUBKTNV-1" vertex="1">
          <mxGeometry x="167" y="1102" width="100" height="80" as="geometry" />
        </mxCell>
        <mxCell id="CgVU10pBGHFMZxcEaCjF-54" value="No" style="text;html=1;align=center;verticalAlign=middle;resizable=0;points=[];autosize=1;strokeColor=none;fillColor=none;fontSize=15;" parent="WIyWlLk6GJQsqaUBKTNV-1" vertex="1">
          <mxGeometry x="123" y="1116" width="40" height="30" as="geometry" />
        </mxCell>
        <mxCell id="CgVU10pBGHFMZxcEaCjF-55" value="Yes" style="text;html=1;align=center;verticalAlign=middle;resizable=0;points=[];autosize=1;strokeColor=none;fillColor=none;fontSize=15;" parent="WIyWlLk6GJQsqaUBKTNV-1" vertex="1">
          <mxGeometry x="208" y="1182" width="50" height="30" as="geometry" />
        </mxCell>
        <mxCell id="CgVU10pBGHFMZxcEaCjF-56" value="" style="rounded=0;html=1;jettySize=auto;orthogonalLoop=1;fontSize=15;endArrow=block;endFill=0;endSize=8;strokeWidth=1;shadow=0;labelBackgroundColor=none;edgeStyle=orthogonalEdgeStyle;entryX=0.5;entryY=0;entryDx=0;entryDy=0;" parent="WIyWlLk6GJQsqaUBKTNV-1" edge="1">
          <mxGeometry relative="1" as="geometry">
            <mxPoint x="217.41000000000003" y="1064" as="sourcePoint" />
            <mxPoint x="217.41000000000003" y="1103" as="targetPoint" />
          </mxGeometry>
        </mxCell>
        <mxCell id="CgVU10pBGHFMZxcEaCjF-57" value="" style="rounded=0;html=1;jettySize=auto;orthogonalLoop=1;fontSize=15;endArrow=block;endFill=0;endSize=8;strokeWidth=1;shadow=0;labelBackgroundColor=none;edgeStyle=orthogonalEdgeStyle;exitX=0;exitY=0.5;exitDx=0;exitDy=0;entryX=0;entryY=0.5;entryDx=0;entryDy=0;" parent="WIyWlLk6GJQsqaUBKTNV-1" source="CgVU10pBGHFMZxcEaCjF-53" target="WIyWlLk6GJQsqaUBKTNV-12" edge="1">
          <mxGeometry relative="1" as="geometry">
            <mxPoint x="150" y="1221" as="sourcePoint" />
            <mxPoint x="150" y="300" as="targetPoint" />
            <Array as="points">
              <mxPoint x="-120" y="1142" />
              <mxPoint x="-120" y="300" />
            </Array>
          </mxGeometry>
        </mxCell>
        <mxCell id="CgVU10pBGHFMZxcEaCjF-58" value="i++" style="ellipse;whiteSpace=wrap;html=1;fontSize=15;" parent="WIyWlLk6GJQsqaUBKTNV-1" vertex="1">
          <mxGeometry x="-160" y="869" width="90" height="55" as="geometry" />
        </mxCell>
        <mxCell id="CgVU10pBGHFMZxcEaCjF-59" value="Done" style="rounded=1;whiteSpace=wrap;html=1;fontSize=15;glass=0;strokeWidth=1;shadow=0;" parent="WIyWlLk6GJQsqaUBKTNV-1" vertex="1">
          <mxGeometry x="158" y="1220" width="120" height="40" as="geometry" />
        </mxCell>
        <mxCell id="CgVU10pBGHFMZxcEaCjF-60" value="S7" style="text;html=1;align=center;verticalAlign=middle;resizable=0;points=[];autosize=1;strokeColor=none;fillColor=none;fontSize=15;" parent="WIyWlLk6GJQsqaUBKTNV-1" vertex="1">
          <mxGeometry x="278" y="1225" width="40" height="30" as="geometry" />
        </mxCell>
        <mxCell id="CgVU10pBGHFMZxcEaCjF-61" value="" style="rounded=0;html=1;jettySize=auto;orthogonalLoop=1;fontSize=15;endArrow=block;endFill=0;endSize=8;strokeWidth=1;shadow=0;labelBackgroundColor=none;edgeStyle=orthogonalEdgeStyle;entryX=0.5;entryY=0;entryDx=0;entryDy=0;" parent="WIyWlLk6GJQsqaUBKTNV-1" edge="1">
          <mxGeometry relative="1" as="geometry">
            <mxPoint x="217.41000000000003" y="1181" as="sourcePoint" />
            <mxPoint x="217.41000000000003" y="1220" as="targetPoint" />
          </mxGeometry>
        </mxCell>
        <mxCell id="CgVU10pBGHFMZxcEaCjF-62" value="Calculate?" style="rhombus;whiteSpace=wrap;html=1;shadow=0;fontFamily=Helvetica;fontSize=15;align=center;strokeWidth=1;spacing=6;spacingTop=-4;" parent="WIyWlLk6GJQsqaUBKTNV-1" vertex="1">
          <mxGeometry y="1200" width="100" height="80" as="geometry" />
        </mxCell>
        <mxCell id="CgVU10pBGHFMZxcEaCjF-63" value="" style="rounded=0;html=1;jettySize=auto;orthogonalLoop=1;fontSize=15;endArrow=block;endFill=0;endSize=8;strokeWidth=1;shadow=0;labelBackgroundColor=none;edgeStyle=orthogonalEdgeStyle;entryX=1;entryY=0.5;entryDx=0;entryDy=0;exitX=0;exitY=0.5;exitDx=0;exitDy=0;" parent="WIyWlLk6GJQsqaUBKTNV-1" source="CgVU10pBGHFMZxcEaCjF-59" target="CgVU10pBGHFMZxcEaCjF-62" edge="1">
          <mxGeometry relative="1" as="geometry">
            <mxPoint x="130.00000000000003" y="1225" as="sourcePoint" />
            <mxPoint x="130.00000000000003" y="1264" as="targetPoint" />
          </mxGeometry>
        </mxCell>
        <mxCell id="CgVU10pBGHFMZxcEaCjF-64" value="" style="rounded=0;html=1;jettySize=auto;orthogonalLoop=1;fontSize=15;endArrow=block;endFill=0;endSize=8;strokeWidth=1;shadow=0;labelBackgroundColor=none;edgeStyle=orthogonalEdgeStyle;exitX=0.5;exitY=1;exitDx=0;exitDy=0;" parent="WIyWlLk6GJQsqaUBKTNV-1" source="CgVU10pBGHFMZxcEaCjF-62" edge="1">
          <mxGeometry relative="1" as="geometry">
            <mxPoint x="50" y="1304" as="sourcePoint" />
            <mxPoint x="220" y="1264" as="targetPoint" />
            <Array as="points">
              <mxPoint x="50" y="1300" />
              <mxPoint x="220" y="1300" />
            </Array>
          </mxGeometry>
        </mxCell>
        <mxCell id="CgVU10pBGHFMZxcEaCjF-65" value="Yes" style="text;html=1;align=center;verticalAlign=middle;resizable=0;points=[];autosize=1;strokeColor=none;fillColor=none;fontSize=15;" parent="WIyWlLk6GJQsqaUBKTNV-1" vertex="1">
          <mxGeometry x="40" y="1274" width="50" height="30" as="geometry" />
        </mxCell>
        <mxCell id="CgVU10pBGHFMZxcEaCjF-66" value="No" style="text;html=1;align=center;verticalAlign=middle;resizable=0;points=[];autosize=1;strokeColor=none;fillColor=none;fontSize=15;" parent="WIyWlLk6GJQsqaUBKTNV-1" vertex="1">
          <mxGeometry x="-48" y="1212" width="40" height="30" as="geometry" />
        </mxCell>
        <mxCell id="CgVU10pBGHFMZxcEaCjF-68" value="" style="rounded=0;html=1;jettySize=auto;orthogonalLoop=1;fontSize=15;endArrow=block;endFill=0;endSize=8;strokeWidth=1;shadow=0;labelBackgroundColor=none;edgeStyle=orthogonalEdgeStyle;" parent="WIyWlLk6GJQsqaUBKTNV-1" edge="1">
          <mxGeometry relative="1" as="geometry">
            <mxPoint x="260" y="40" as="sourcePoint" />
            <mxPoint x="260" y="80" as="targetPoint" />
          </mxGeometry>
        </mxCell>
        <mxCell id="CgVU10pBGHFMZxcEaCjF-69" value="reset" style="text;html=1;align=center;verticalAlign=middle;resizable=0;points=[];autosize=1;strokeColor=none;fillColor=none;fontSize=15;" parent="WIyWlLk6GJQsqaUBKTNV-1" vertex="1">
          <mxGeometry x="230" y="18" width="60" height="30" as="geometry" />
        </mxCell>
        <mxCell id="CgVU10pBGHFMZxcEaCjF-70" value="" style="rounded=0;html=1;jettySize=auto;orthogonalLoop=1;fontSize=15;endArrow=block;endFill=0;endSize=8;strokeWidth=1;shadow=0;labelBackgroundColor=none;edgeStyle=orthogonalEdgeStyle;" parent="WIyWlLk6GJQsqaUBKTNV-1" source="CgVU10pBGHFMZxcEaCjF-71" target="CgVU10pBGHFMZxcEaCjF-73" edge="1">
          <mxGeometry relative="1" as="geometry" />
        </mxCell>
        <mxCell id="CgVU10pBGHFMZxcEaCjF-71" value="Li,Ll,Lrow,Lcol" style="rounded=1;whiteSpace=wrap;html=1;fontSize=15;glass=0;strokeWidth=1;shadow=0;" parent="WIyWlLk6GJQsqaUBKTNV-1" vertex="1">
          <mxGeometry x="441" y="80" width="120" height="40" as="geometry" />
        </mxCell>
        <mxCell id="CgVU10pBGHFMZxcEaCjF-72" value="0" style="edgeStyle=orthogonalEdgeStyle;rounded=0;html=1;jettySize=auto;orthogonalLoop=1;fontSize=15;endArrow=block;endFill=0;endSize=8;strokeWidth=1;shadow=0;labelBackgroundColor=none;entryX=0;entryY=0.5;entryDx=0;entryDy=0;" parent="WIyWlLk6GJQsqaUBKTNV-1" source="CgVU10pBGHFMZxcEaCjF-73" target="CgVU10pBGHFMZxcEaCjF-71" edge="1">
          <mxGeometry x="-0.8" y="-10" relative="1" as="geometry">
            <mxPoint as="offset" />
            <mxPoint x="411" y="100" as="targetPoint" />
            <Array as="points">
              <mxPoint x="401" y="210" />
              <mxPoint x="401" y="100" />
            </Array>
          </mxGeometry>
        </mxCell>
        <mxCell id="CgVU10pBGHFMZxcEaCjF-73" value="calc" style="rhombus;whiteSpace=wrap;html=1;shadow=0;fontFamily=Helvetica;fontSize=15;align=center;strokeWidth=1;spacing=6;spacingTop=-4;" parent="WIyWlLk6GJQsqaUBKTNV-1" vertex="1">
          <mxGeometry x="451" y="170" width="100" height="80" as="geometry" />
        </mxCell>
        <mxCell id="CgVU10pBGHFMZxcEaCjF-74" value="Lrow" style="rounded=1;whiteSpace=wrap;html=1;fontSize=15;glass=0;strokeWidth=1;shadow=0;" parent="WIyWlLk6GJQsqaUBKTNV-1" vertex="1">
          <mxGeometry x="441" y="430" width="120" height="40" as="geometry" />
        </mxCell>
        <mxCell id="CgVU10pBGHFMZxcEaCjF-75" value="Lj" style="rounded=1;whiteSpace=wrap;html=1;fontSize=15;glass=0;strokeWidth=1;shadow=0;" parent="WIyWlLk6GJQsqaUBKTNV-1" vertex="1">
          <mxGeometry x="441" y="280" width="120" height="40" as="geometry" />
        </mxCell>
        <mxCell id="CgVU10pBGHFMZxcEaCjF-76" value="S0" style="text;html=1;align=center;verticalAlign=middle;resizable=0;points=[];autosize=1;strokeColor=none;fillColor=none;fontSize=15;" parent="WIyWlLk6GJQsqaUBKTNV-1" vertex="1">
          <mxGeometry x="561" y="85" width="40" height="30" as="geometry" />
        </mxCell>
        <mxCell id="CgVU10pBGHFMZxcEaCjF-77" value="S1" style="text;html=1;align=center;verticalAlign=middle;resizable=0;points=[];autosize=1;strokeColor=none;fillColor=none;fontSize=15;" parent="WIyWlLk6GJQsqaUBKTNV-1" vertex="1">
          <mxGeometry x="401" y="285" width="40" height="30" as="geometry" />
        </mxCell>
        <mxCell id="CgVU10pBGHFMZxcEaCjF-78" value="&lt;font&gt;1&lt;/font&gt;" style="text;html=1;align=center;verticalAlign=middle;resizable=0;points=[];autosize=1;strokeColor=none;fillColor=none;fontSize=15;" parent="WIyWlLk6GJQsqaUBKTNV-1" vertex="1">
          <mxGeometry x="496" y="240" width="30" height="30" as="geometry" />
        </mxCell>
        <mxCell id="CgVU10pBGHFMZxcEaCjF-79" value="" style="rounded=0;html=1;jettySize=auto;orthogonalLoop=1;fontSize=15;endArrow=block;endFill=0;endSize=8;strokeWidth=1;shadow=0;labelBackgroundColor=none;edgeStyle=orthogonalEdgeStyle;" parent="WIyWlLk6GJQsqaUBKTNV-1" edge="1">
          <mxGeometry relative="1" as="geometry">
            <mxPoint x="500.86" y="249" as="sourcePoint" />
            <mxPoint x="501" y="280" as="targetPoint" />
          </mxGeometry>
        </mxCell>
        <mxCell id="CgVU10pBGHFMZxcEaCjF-80" value="Ll" style="rounded=1;whiteSpace=wrap;html=1;fontSize=15;glass=0;strokeWidth=1;shadow=0;" parent="WIyWlLk6GJQsqaUBKTNV-1" vertex="1">
          <mxGeometry x="441" y="351" width="120" height="40" as="geometry" />
        </mxCell>
        <mxCell id="CgVU10pBGHFMZxcEaCjF-81" value="S2" style="text;html=1;align=center;verticalAlign=middle;resizable=0;points=[];autosize=1;strokeColor=none;fillColor=none;fontSize=15;" parent="WIyWlLk6GJQsqaUBKTNV-1" vertex="1">
          <mxGeometry x="401" y="356" width="40" height="30" as="geometry" />
        </mxCell>
        <mxCell id="CgVU10pBGHFMZxcEaCjF-82" value="" style="rounded=0;html=1;jettySize=auto;orthogonalLoop=1;fontSize=15;endArrow=block;endFill=0;endSize=8;strokeWidth=1;shadow=0;labelBackgroundColor=none;edgeStyle=orthogonalEdgeStyle;" parent="WIyWlLk6GJQsqaUBKTNV-1" edge="1">
          <mxGeometry relative="1" as="geometry">
            <mxPoint x="500.86" y="320" as="sourcePoint" />
            <mxPoint x="501" y="351" as="targetPoint" />
          </mxGeometry>
        </mxCell>
        <mxCell id="CgVU10pBGHFMZxcEaCjF-83" value="" style="rounded=0;html=1;jettySize=auto;orthogonalLoop=1;fontSize=15;endArrow=block;endFill=0;endSize=8;strokeWidth=1;shadow=0;labelBackgroundColor=none;edgeStyle=orthogonalEdgeStyle;entryX=0.5;entryY=0;entryDx=0;entryDy=0;" parent="WIyWlLk6GJQsqaUBKTNV-1" target="CgVU10pBGHFMZxcEaCjF-74" edge="1">
          <mxGeometry relative="1" as="geometry">
            <mxPoint x="501" y="391" as="sourcePoint" />
            <mxPoint x="502" y="422" as="targetPoint" />
          </mxGeometry>
        </mxCell>
        <mxCell id="CgVU10pBGHFMZxcEaCjF-84" value="S3" style="text;html=1;align=center;verticalAlign=middle;resizable=0;points=[];autosize=1;strokeColor=none;fillColor=none;fontSize=15;" parent="WIyWlLk6GJQsqaUBKTNV-1" vertex="1">
          <mxGeometry x="401" y="435" width="40" height="30" as="geometry" />
        </mxCell>
        <mxCell id="CgVU10pBGHFMZxcEaCjF-85" value="" style="rounded=1;whiteSpace=wrap;html=1;fontSize=15;glass=0;strokeWidth=1;shadow=0;" parent="WIyWlLk6GJQsqaUBKTNV-1" vertex="1">
          <mxGeometry x="441" y="509" width="120" height="40" as="geometry" />
        </mxCell>
        <mxCell id="CgVU10pBGHFMZxcEaCjF-86" value="" style="rounded=0;html=1;jettySize=auto;orthogonalLoop=1;fontSize=15;endArrow=block;endFill=0;endSize=8;strokeWidth=1;shadow=0;labelBackgroundColor=none;edgeStyle=orthogonalEdgeStyle;entryX=0.5;entryY=0;entryDx=0;entryDy=0;" parent="WIyWlLk6GJQsqaUBKTNV-1" target="CgVU10pBGHFMZxcEaCjF-85" edge="1">
          <mxGeometry relative="1" as="geometry">
            <mxPoint x="501" y="470" as="sourcePoint" />
            <mxPoint x="502" y="501" as="targetPoint" />
          </mxGeometry>
        </mxCell>
        <mxCell id="CgVU10pBGHFMZxcEaCjF-87" value="S4" style="text;html=1;align=center;verticalAlign=middle;resizable=0;points=[];autosize=1;strokeColor=none;fillColor=none;fontSize=15;" parent="WIyWlLk6GJQsqaUBKTNV-1" vertex="1">
          <mxGeometry x="401" y="514" width="40" height="30" as="geometry" />
        </mxCell>
        <mxCell id="CgVU10pBGHFMZxcEaCjF-89" value="" style="rounded=0;html=1;jettySize=auto;orthogonalLoop=1;fontSize=15;endArrow=block;endFill=0;endSize=8;strokeWidth=1;shadow=0;labelBackgroundColor=none;edgeStyle=orthogonalEdgeStyle;entryX=0.5;entryY=0;entryDx=0;entryDy=0;" parent="WIyWlLk6GJQsqaUBKTNV-1" edge="1">
          <mxGeometry relative="1" as="geometry">
            <mxPoint x="501" y="549" as="sourcePoint" />
            <mxPoint x="501" y="588" as="targetPoint" />
          </mxGeometry>
        </mxCell>
        <mxCell id="CgVU10pBGHFMZxcEaCjF-91" value="zrow" style="rhombus;whiteSpace=wrap;html=1;shadow=0;fontFamily=Helvetica;fontSize=15;align=center;strokeWidth=1;spacing=6;spacingTop=-4;" parent="WIyWlLk6GJQsqaUBKTNV-1" vertex="1">
          <mxGeometry x="451" y="588" width="100" height="80" as="geometry" />
        </mxCell>
        <mxCell id="CgVU10pBGHFMZxcEaCjF-93" value="" style="rounded=0;html=1;jettySize=auto;orthogonalLoop=1;fontSize=15;endArrow=block;endFill=0;endSize=8;strokeWidth=1;shadow=0;labelBackgroundColor=none;edgeStyle=orthogonalEdgeStyle;entryX=1;entryY=0.5;entryDx=0;entryDy=0;exitX=1;exitY=0.5;exitDx=0;exitDy=0;" parent="WIyWlLk6GJQsqaUBKTNV-1" source="CgVU10pBGHFMZxcEaCjF-91" target="CgVU10pBGHFMZxcEaCjF-85" edge="1">
          <mxGeometry relative="1" as="geometry">
            <mxPoint x="711" y="709.9999999999995" as="sourcePoint" />
            <mxPoint x="701" y="533" as="targetPoint" />
            <Array as="points">
              <mxPoint x="641" y="628" />
              <mxPoint x="641" y="529" />
            </Array>
          </mxGeometry>
        </mxCell>
        <mxCell id="CgVU10pBGHFMZxcEaCjF-94" value="Erow" style="ellipse;whiteSpace=wrap;html=1;fontSize=15;" parent="WIyWlLk6GJQsqaUBKTNV-1" vertex="1">
          <mxGeometry x="599" y="551.5" width="90" height="55" as="geometry" />
        </mxCell>
        <mxCell id="CgVU10pBGHFMZxcEaCjF-95" value="&lt;div&gt;&lt;span style=&quot;background-color: initial;&quot;&gt;0&lt;/span&gt;&lt;/div&gt;" style="text;html=1;align=center;verticalAlign=middle;resizable=0;points=[];autosize=1;strokeColor=none;fillColor=none;fontSize=15;" parent="WIyWlLk6GJQsqaUBKTNV-1" vertex="1">
          <mxGeometry x="541" y="604" width="30" height="30" as="geometry" />
        </mxCell>
        <mxCell id="CgVU10pBGHFMZxcEaCjF-96" value="" style="rounded=0;html=1;jettySize=auto;orthogonalLoop=1;fontSize=15;endArrow=block;endFill=0;endSize=8;strokeWidth=1;shadow=0;labelBackgroundColor=none;edgeStyle=orthogonalEdgeStyle;entryX=0.5;entryY=0;entryDx=0;entryDy=0;" parent="WIyWlLk6GJQsqaUBKTNV-1" edge="1">
          <mxGeometry relative="1" as="geometry">
            <mxPoint x="500.4100000000001" y="668" as="sourcePoint" />
            <mxPoint x="500.4100000000001" y="707" as="targetPoint" />
          </mxGeometry>
        </mxCell>
        <mxCell id="CgVU10pBGHFMZxcEaCjF-97" value="Arr" style="rounded=1;whiteSpace=wrap;html=1;fontSize=15;glass=0;strokeWidth=1;shadow=0;" parent="WIyWlLk6GJQsqaUBKTNV-1" vertex="1">
          <mxGeometry x="441" y="708" width="120" height="40" as="geometry" />
        </mxCell>
        <mxCell id="CgVU10pBGHFMZxcEaCjF-98" value="S5" style="text;html=1;align=center;verticalAlign=middle;resizable=0;points=[];autosize=1;strokeColor=none;fillColor=none;fontSize=15;" parent="WIyWlLk6GJQsqaUBKTNV-1" vertex="1">
          <mxGeometry x="399" y="713" width="40" height="30" as="geometry" />
        </mxCell>
        <mxCell id="CgVU10pBGHFMZxcEaCjF-99" value="zl" style="rhombus;whiteSpace=wrap;html=1;shadow=0;fontFamily=Helvetica;fontSize=15;align=center;strokeWidth=1;spacing=6;spacingTop=-4;" parent="WIyWlLk6GJQsqaUBKTNV-1" vertex="1">
          <mxGeometry x="449" y="787" width="100" height="80" as="geometry" />
        </mxCell>
        <mxCell id="CgVU10pBGHFMZxcEaCjF-100" value="" style="rounded=0;html=1;jettySize=auto;orthogonalLoop=1;fontSize=15;endArrow=block;endFill=0;endSize=8;strokeWidth=1;shadow=0;labelBackgroundColor=none;edgeStyle=orthogonalEdgeStyle;entryX=0.5;entryY=0;entryDx=0;entryDy=0;" parent="WIyWlLk6GJQsqaUBKTNV-1" edge="1">
          <mxGeometry relative="1" as="geometry">
            <mxPoint x="500.4100000000001" y="748" as="sourcePoint" />
            <mxPoint x="500.4100000000001" y="787" as="targetPoint" />
          </mxGeometry>
        </mxCell>
        <mxCell id="CgVU10pBGHFMZxcEaCjF-101" value="" style="rounded=0;html=1;jettySize=auto;orthogonalLoop=1;fontSize=15;endArrow=block;endFill=0;endSize=8;strokeWidth=1;shadow=0;labelBackgroundColor=none;edgeStyle=orthogonalEdgeStyle;exitX=1;exitY=0.5;exitDx=0;exitDy=0;" parent="WIyWlLk6GJQsqaUBKTNV-1" source="CgVU10pBGHFMZxcEaCjF-99" edge="1">
          <mxGeometry relative="1" as="geometry">
            <mxPoint x="551" y="904" as="sourcePoint" />
            <mxPoint x="561" y="450" as="targetPoint" />
            <Array as="points">
              <mxPoint x="549" y="830" />
              <mxPoint x="701" y="830" />
              <mxPoint x="701" y="449" />
              <mxPoint x="580" y="449" />
            </Array>
          </mxGeometry>
        </mxCell>
        <mxCell id="CgVU10pBGHFMZxcEaCjF-102" value="El" style="ellipse;whiteSpace=wrap;html=1;fontSize=15;" parent="WIyWlLk6GJQsqaUBKTNV-1" vertex="1">
          <mxGeometry x="651" y="621" width="90" height="55" as="geometry" />
        </mxCell>
        <mxCell id="CgVU10pBGHFMZxcEaCjF-103" value="0" style="text;html=1;align=center;verticalAlign=middle;resizable=0;points=[];autosize=1;strokeColor=none;fillColor=none;fontSize=15;" parent="WIyWlLk6GJQsqaUBKTNV-1" vertex="1">
          <mxGeometry x="541" y="802" width="30" height="30" as="geometry" />
        </mxCell>
        <mxCell id="CgVU10pBGHFMZxcEaCjF-104" value="1" style="text;html=1;align=center;verticalAlign=middle;resizable=0;points=[];autosize=1;strokeColor=none;fillColor=none;fontSize=15;" parent="WIyWlLk6GJQsqaUBKTNV-1" vertex="1">
          <mxGeometry x="499" y="665" width="30" height="30" as="geometry" />
        </mxCell>
        <mxCell id="CgVU10pBGHFMZxcEaCjF-105" value="1" style="text;html=1;align=center;verticalAlign=middle;resizable=0;points=[];autosize=1;strokeColor=none;fillColor=none;fontSize=15;" parent="WIyWlLk6GJQsqaUBKTNV-1" vertex="1">
          <mxGeometry x="499" y="867" width="30" height="30" as="geometry" />
        </mxCell>
        <mxCell id="CgVU10pBGHFMZxcEaCjF-106" value="zj" style="rhombus;whiteSpace=wrap;html=1;shadow=0;fontFamily=Helvetica;fontSize=15;align=center;strokeWidth=1;spacing=6;spacingTop=-4;" parent="WIyWlLk6GJQsqaUBKTNV-1" vertex="1">
          <mxGeometry x="449" y="983" width="100" height="80" as="geometry" />
        </mxCell>
        <mxCell id="CgVU10pBGHFMZxcEaCjF-107" value="" style="rounded=0;html=1;jettySize=auto;orthogonalLoop=1;fontSize=15;endArrow=block;endFill=0;endSize=8;strokeWidth=1;shadow=0;labelBackgroundColor=none;edgeStyle=orthogonalEdgeStyle;entryX=0.5;entryY=0;entryDx=0;entryDy=0;" parent="WIyWlLk6GJQsqaUBKTNV-1" edge="1">
          <mxGeometry relative="1" as="geometry">
            <mxPoint x="499.4100000000001" y="866" as="sourcePoint" />
            <mxPoint x="499.4100000000001" y="905" as="targetPoint" />
          </mxGeometry>
        </mxCell>
        <mxCell id="CgVU10pBGHFMZxcEaCjF-108" value="0" style="text;html=1;align=center;verticalAlign=middle;resizable=0;points=[];autosize=1;strokeColor=none;fillColor=none;fontSize=15;" parent="WIyWlLk6GJQsqaUBKTNV-1" vertex="1">
          <mxGeometry x="541" y="997" width="30" height="30" as="geometry" />
        </mxCell>
        <mxCell id="CgVU10pBGHFMZxcEaCjF-109" value="1" style="text;html=1;align=center;verticalAlign=middle;resizable=0;points=[];autosize=1;strokeColor=none;fillColor=none;fontSize=15;" parent="WIyWlLk6GJQsqaUBKTNV-1" vertex="1">
          <mxGeometry x="499" y="1061" width="30" height="30" as="geometry" />
        </mxCell>
        <mxCell id="CgVU10pBGHFMZxcEaCjF-110" value="Ey" style="rounded=1;whiteSpace=wrap;html=1;fontSize=15;glass=0;strokeWidth=1;shadow=0;" parent="WIyWlLk6GJQsqaUBKTNV-1" vertex="1">
          <mxGeometry x="439" y="905" width="120" height="40" as="geometry" />
        </mxCell>
        <mxCell id="CgVU10pBGHFMZxcEaCjF-111" value="S6" style="text;html=1;align=center;verticalAlign=middle;resizable=0;points=[];autosize=1;strokeColor=none;fillColor=none;fontSize=15;" parent="WIyWlLk6GJQsqaUBKTNV-1" vertex="1">
          <mxGeometry x="394" y="910" width="40" height="30" as="geometry" />
        </mxCell>
        <mxCell id="CgVU10pBGHFMZxcEaCjF-112" value="" style="rounded=0;html=1;jettySize=auto;orthogonalLoop=1;fontSize=15;endArrow=block;endFill=0;endSize=8;strokeWidth=1;shadow=0;labelBackgroundColor=none;edgeStyle=orthogonalEdgeStyle;entryX=0.5;entryY=0;entryDx=0;entryDy=0;" parent="WIyWlLk6GJQsqaUBKTNV-1" edge="1">
          <mxGeometry relative="1" as="geometry">
            <mxPoint x="499.4100000000001" y="945" as="sourcePoint" />
            <mxPoint x="499.4100000000001" y="984" as="targetPoint" />
          </mxGeometry>
        </mxCell>
        <mxCell id="CgVU10pBGHFMZxcEaCjF-113" value="" style="rounded=0;html=1;jettySize=auto;orthogonalLoop=1;fontSize=15;endArrow=block;endFill=0;endSize=8;strokeWidth=1;shadow=0;labelBackgroundColor=none;edgeStyle=orthogonalEdgeStyle;exitX=1;exitY=0.5;exitDx=0;exitDy=0;" parent="WIyWlLk6GJQsqaUBKTNV-1" source="CgVU10pBGHFMZxcEaCjF-106" target="CgVU10pBGHFMZxcEaCjF-80" edge="1">
          <mxGeometry relative="1" as="geometry">
            <mxPoint x="551" y="1101" as="sourcePoint" />
            <mxPoint x="591" y="371" as="targetPoint" />
            <Array as="points">
              <mxPoint x="761" y="1023" />
              <mxPoint x="761" y="370" />
            </Array>
          </mxGeometry>
        </mxCell>
        <mxCell id="CgVU10pBGHFMZxcEaCjF-114" value="Ej" style="ellipse;whiteSpace=wrap;html=1;fontSize=15;" parent="WIyWlLk6GJQsqaUBKTNV-1" vertex="1">
          <mxGeometry x="711" y="825.5" width="90" height="55" as="geometry" />
        </mxCell>
        <mxCell id="CgVU10pBGHFMZxcEaCjF-115" value="zi" style="rhombus;whiteSpace=wrap;html=1;shadow=0;fontFamily=Helvetica;fontSize=15;align=center;strokeWidth=1;spacing=6;spacingTop=-4;" parent="WIyWlLk6GJQsqaUBKTNV-1" vertex="1">
          <mxGeometry x="448" y="1100" width="100" height="80" as="geometry" />
        </mxCell>
        <mxCell id="CgVU10pBGHFMZxcEaCjF-116" value="0" style="text;html=1;align=center;verticalAlign=middle;resizable=0;points=[];autosize=1;strokeColor=none;fillColor=none;fontSize=15;" parent="WIyWlLk6GJQsqaUBKTNV-1" vertex="1">
          <mxGeometry x="541" y="1114" width="30" height="30" as="geometry" />
        </mxCell>
        <mxCell id="CgVU10pBGHFMZxcEaCjF-117" value="1" style="text;html=1;align=center;verticalAlign=middle;resizable=0;points=[];autosize=1;strokeColor=none;fillColor=none;fontSize=15;" parent="WIyWlLk6GJQsqaUBKTNV-1" vertex="1">
          <mxGeometry x="499" y="1180" width="30" height="30" as="geometry" />
        </mxCell>
        <mxCell id="CgVU10pBGHFMZxcEaCjF-118" value="" style="rounded=0;html=1;jettySize=auto;orthogonalLoop=1;fontSize=15;endArrow=block;endFill=0;endSize=8;strokeWidth=1;shadow=0;labelBackgroundColor=none;edgeStyle=orthogonalEdgeStyle;entryX=0.5;entryY=0;entryDx=0;entryDy=0;" parent="WIyWlLk6GJQsqaUBKTNV-1" edge="1">
          <mxGeometry relative="1" as="geometry">
            <mxPoint x="498.4100000000001" y="1062" as="sourcePoint" />
            <mxPoint x="498.4100000000001" y="1101" as="targetPoint" />
          </mxGeometry>
        </mxCell>
        <mxCell id="CgVU10pBGHFMZxcEaCjF-119" value="" style="rounded=0;html=1;jettySize=auto;orthogonalLoop=1;fontSize=15;endArrow=block;endFill=0;endSize=8;strokeWidth=1;shadow=0;labelBackgroundColor=none;edgeStyle=orthogonalEdgeStyle;exitX=1;exitY=0.5;exitDx=0;exitDy=0;entryX=1;entryY=0.5;entryDx=0;entryDy=0;" parent="WIyWlLk6GJQsqaUBKTNV-1" source="CgVU10pBGHFMZxcEaCjF-115" target="CgVU10pBGHFMZxcEaCjF-75" edge="1">
          <mxGeometry relative="1" as="geometry">
            <mxPoint x="579" y="1220" as="sourcePoint" />
            <mxPoint x="592" y="302" as="targetPoint" />
            <Array as="points">
              <mxPoint x="821" y="1140" />
              <mxPoint x="821" y="300" />
            </Array>
          </mxGeometry>
        </mxCell>
        <mxCell id="CgVU10pBGHFMZxcEaCjF-120" value="Ei" style="ellipse;whiteSpace=wrap;html=1;fontSize=15;" parent="WIyWlLk6GJQsqaUBKTNV-1" vertex="1">
          <mxGeometry x="771" y="1027" width="90" height="55" as="geometry" />
        </mxCell>
        <mxCell id="CgVU10pBGHFMZxcEaCjF-121" value="Done" style="rounded=1;whiteSpace=wrap;html=1;fontSize=15;glass=0;strokeWidth=1;shadow=0;" parent="WIyWlLk6GJQsqaUBKTNV-1" vertex="1">
          <mxGeometry x="439" y="1218" width="120" height="40" as="geometry" />
        </mxCell>
        <mxCell id="CgVU10pBGHFMZxcEaCjF-122" value="S7" style="text;html=1;align=center;verticalAlign=middle;resizable=0;points=[];autosize=1;strokeColor=none;fillColor=none;fontSize=15;" parent="WIyWlLk6GJQsqaUBKTNV-1" vertex="1">
          <mxGeometry x="394" y="1223" width="40" height="30" as="geometry" />
        </mxCell>
        <mxCell id="CgVU10pBGHFMZxcEaCjF-123" value="" style="rounded=0;html=1;jettySize=auto;orthogonalLoop=1;fontSize=15;endArrow=block;endFill=0;endSize=8;strokeWidth=1;shadow=0;labelBackgroundColor=none;edgeStyle=orthogonalEdgeStyle;entryX=0.5;entryY=0;entryDx=0;entryDy=0;" parent="WIyWlLk6GJQsqaUBKTNV-1" edge="1">
          <mxGeometry relative="1" as="geometry">
            <mxPoint x="498.4100000000001" y="1179" as="sourcePoint" />
            <mxPoint x="498.4100000000001" y="1218" as="targetPoint" />
          </mxGeometry>
        </mxCell>
        <mxCell id="CgVU10pBGHFMZxcEaCjF-124" value="calc" style="rhombus;whiteSpace=wrap;html=1;shadow=0;fontFamily=Helvetica;fontSize=15;align=center;strokeWidth=1;spacing=6;spacingTop=-4;" parent="WIyWlLk6GJQsqaUBKTNV-1" vertex="1">
          <mxGeometry x="651" y="1198" width="100" height="80" as="geometry" />
        </mxCell>
        <mxCell id="CgVU10pBGHFMZxcEaCjF-125" value="" style="rounded=0;html=1;jettySize=auto;orthogonalLoop=1;fontSize=15;endArrow=block;endFill=0;endSize=8;strokeWidth=1;shadow=0;labelBackgroundColor=none;edgeStyle=orthogonalEdgeStyle;entryX=0;entryY=0.5;entryDx=0;entryDy=0;exitX=1;exitY=0.5;exitDx=0;exitDy=0;" parent="WIyWlLk6GJQsqaUBKTNV-1" source="CgVU10pBGHFMZxcEaCjF-121" target="CgVU10pBGHFMZxcEaCjF-124" edge="1">
          <mxGeometry relative="1" as="geometry">
            <mxPoint x="411" y="1223" as="sourcePoint" />
            <mxPoint x="411" y="1262" as="targetPoint" />
            <Array as="points">
              <mxPoint x="611" y="1238" />
              <mxPoint x="611" y="1238" />
            </Array>
          </mxGeometry>
        </mxCell>
        <mxCell id="CgVU10pBGHFMZxcEaCjF-126" value="" style="rounded=0;html=1;jettySize=auto;orthogonalLoop=1;fontSize=15;endArrow=block;endFill=0;endSize=8;strokeWidth=1;shadow=0;labelBackgroundColor=none;edgeStyle=orthogonalEdgeStyle;exitX=0.5;exitY=1;exitDx=0;exitDy=0;" parent="WIyWlLk6GJQsqaUBKTNV-1" source="CgVU10pBGHFMZxcEaCjF-124" edge="1">
          <mxGeometry relative="1" as="geometry">
            <mxPoint x="331" y="1302" as="sourcePoint" />
            <mxPoint x="501" y="1262" as="targetPoint" />
            <Array as="points">
              <mxPoint x="701" y="1298" />
              <mxPoint x="501" y="1298" />
            </Array>
          </mxGeometry>
        </mxCell>
        <mxCell id="CgVU10pBGHFMZxcEaCjF-127" value="1" style="text;html=1;align=center;verticalAlign=middle;resizable=0;points=[];autosize=1;strokeColor=none;fillColor=none;fontSize=15;" parent="WIyWlLk6GJQsqaUBKTNV-1" vertex="1">
          <mxGeometry x="666" y="1272" width="30" height="30" as="geometry" />
        </mxCell>
        <mxCell id="CgVU10pBGHFMZxcEaCjF-128" value="0" style="text;html=1;align=center;verticalAlign=middle;resizable=0;points=[];autosize=1;strokeColor=none;fillColor=none;fontSize=15;" parent="WIyWlLk6GJQsqaUBKTNV-1" vertex="1">
          <mxGeometry x="741" y="1210" width="30" height="30" as="geometry" />
        </mxCell>
        <mxCell id="CgVU10pBGHFMZxcEaCjF-129" value="" style="rounded=0;html=1;jettySize=auto;orthogonalLoop=1;fontSize=15;endArrow=block;endFill=0;endSize=8;strokeWidth=1;shadow=0;labelBackgroundColor=none;edgeStyle=orthogonalEdgeStyle;entryX=0.845;entryY=-0.025;entryDx=0;entryDy=0;entryPerimeter=0;exitX=0.5;exitY=1;exitDx=0;exitDy=0;" parent="WIyWlLk6GJQsqaUBKTNV-1" source="O3ppCup09V5jgGHMYTmA-59" edge="1">
          <mxGeometry relative="1" as="geometry">
            <mxPoint x="1006" y="1051.5" as="sourcePoint" />
            <mxPoint x="540.3999999999999" y="79" as="targetPoint" />
            <Array as="points">
              <mxPoint x="964" y="1240" />
              <mxPoint x="1240" y="1240" />
              <mxPoint x="1240" y="40" />
              <mxPoint x="540" y="40" />
            </Array>
          </mxGeometry>
        </mxCell>
        <mxCell id="CgVU10pBGHFMZxcEaCjF-130" value="" style="rounded=0;html=1;jettySize=auto;orthogonalLoop=1;fontSize=15;endArrow=block;endFill=0;endSize=8;strokeWidth=1;shadow=0;labelBackgroundColor=none;edgeStyle=orthogonalEdgeStyle;" parent="WIyWlLk6GJQsqaUBKTNV-1" edge="1">
          <mxGeometry relative="1" as="geometry">
            <mxPoint x="459" y="40" as="sourcePoint" />
            <mxPoint x="459" y="80" as="targetPoint" />
          </mxGeometry>
        </mxCell>
        <mxCell id="CgVU10pBGHFMZxcEaCjF-131" value="reset" style="text;html=1;align=center;verticalAlign=middle;resizable=0;points=[];autosize=1;strokeColor=none;fillColor=none;fontSize=15;" parent="WIyWlLk6GJQsqaUBKTNV-1" vertex="1">
          <mxGeometry x="431" y="18" width="60" height="30" as="geometry" />
        </mxCell>
        <mxCell id="O3ppCup09V5jgGHMYTmA-0" value="Write Input?" style="rhombus;whiteSpace=wrap;html=1;shadow=0;fontFamily=Helvetica;fontSize=15;align=center;strokeWidth=1;spacing=6;spacingTop=-4;" parent="WIyWlLk6GJQsqaUBKTNV-1" vertex="1">
          <mxGeometry x="-319" y="230" width="100" height="80" as="geometry" />
        </mxCell>
        <mxCell id="O3ppCup09V5jgGHMYTmA-1" value="" style="endArrow=classic;html=1;rounded=0;entryX=0.5;entryY=0;entryDx=0;entryDy=0;exitX=0.5;exitY=1;exitDx=0;exitDy=0;" parent="WIyWlLk6GJQsqaUBKTNV-1" source="O3ppCup09V5jgGHMYTmA-0" target="O3ppCup09V5jgGHMYTmA-3" edge="1">
          <mxGeometry width="50" height="50" relative="1" as="geometry">
            <mxPoint x="-319" y="289.57" as="sourcePoint" />
            <mxPoint x="-429" y="289.57" as="targetPoint" />
          </mxGeometry>
        </mxCell>
        <mxCell id="O3ppCup09V5jgGHMYTmA-2" value="Yes" style="text;html=1;align=center;verticalAlign=middle;resizable=0;points=[];autosize=1;strokeColor=none;fillColor=none;" parent="WIyWlLk6GJQsqaUBKTNV-1" vertex="1">
          <mxGeometry x="-309" y="310" width="40" height="30" as="geometry" />
        </mxCell>
        <mxCell id="O3ppCup09V5jgGHMYTmA-3" value="Enqueue" style="rounded=1;whiteSpace=wrap;html=1;fontSize=15;glass=0;strokeWidth=1;shadow=0;" parent="WIyWlLk6GJQsqaUBKTNV-1" vertex="1">
          <mxGeometry x="-329" y="350" width="120" height="40" as="geometry" />
        </mxCell>
        <mxCell id="O3ppCup09V5jgGHMYTmA-4" value="W1" style="text;html=1;align=center;verticalAlign=middle;resizable=0;points=[];autosize=1;strokeColor=none;fillColor=none;" parent="WIyWlLk6GJQsqaUBKTNV-1" vertex="1">
          <mxGeometry x="-209" y="355" width="40" height="30" as="geometry" />
        </mxCell>
        <mxCell id="O3ppCup09V5jgGHMYTmA-5" value="write_done" style="rounded=1;whiteSpace=wrap;html=1;fontSize=15;glass=0;strokeWidth=1;shadow=0;" parent="WIyWlLk6GJQsqaUBKTNV-1" vertex="1">
          <mxGeometry x="-329" y="904" width="120" height="40" as="geometry" />
        </mxCell>
        <mxCell id="O3ppCup09V5jgGHMYTmA-6" value="W2" style="text;html=1;align=center;verticalAlign=middle;resizable=0;points=[];autosize=1;strokeColor=none;fillColor=none;" parent="WIyWlLk6GJQsqaUBKTNV-1" vertex="1">
          <mxGeometry x="-209" y="909" width="40" height="30" as="geometry" />
        </mxCell>
        <mxCell id="O3ppCup09V5jgGHMYTmA-7" value="col=n/2 - 1" style="rhombus;whiteSpace=wrap;html=1;shadow=0;fontFamily=Helvetica;fontSize=15;align=center;strokeWidth=1;spacing=6;spacingTop=-4;" parent="WIyWlLk6GJQsqaUBKTNV-1" vertex="1">
          <mxGeometry x="-319" y="440" width="100" height="80" as="geometry" />
        </mxCell>
        <mxCell id="O3ppCup09V5jgGHMYTmA-8" value="row=n-1" style="rhombus;whiteSpace=wrap;html=1;shadow=0;fontFamily=Helvetica;fontSize=15;align=center;strokeWidth=1;spacing=6;spacingTop=-4;" parent="WIyWlLk6GJQsqaUBKTNV-1" vertex="1">
          <mxGeometry x="-319" y="602" width="100" height="80" as="geometry" />
        </mxCell>
        <mxCell id="O3ppCup09V5jgGHMYTmA-9" value="l=m-1" style="rhombus;whiteSpace=wrap;html=1;shadow=0;fontFamily=Helvetica;fontSize=15;align=center;strokeWidth=1;spacing=6;spacingTop=-4;" parent="WIyWlLk6GJQsqaUBKTNV-1" vertex="1">
          <mxGeometry x="-319" y="756" width="100" height="80" as="geometry" />
        </mxCell>
        <mxCell id="O3ppCup09V5jgGHMYTmA-10" value="" style="endArrow=classic;html=1;rounded=0;exitX=0;exitY=0.5;exitDx=0;exitDy=0;edgeStyle=orthogonalEdgeStyle;" parent="WIyWlLk6GJQsqaUBKTNV-1" source="O3ppCup09V5jgGHMYTmA-7" edge="1">
          <mxGeometry width="50" height="50" relative="1" as="geometry">
            <mxPoint x="-469" y="350" as="sourcePoint" />
            <mxPoint x="-329" y="380" as="targetPoint" />
            <Array as="points">
              <mxPoint x="-369" y="480" />
              <mxPoint x="-369" y="380" />
              <mxPoint x="-329" y="380" />
            </Array>
          </mxGeometry>
        </mxCell>
        <mxCell id="O3ppCup09V5jgGHMYTmA-16" value="No" style="text;html=1;align=center;verticalAlign=middle;resizable=0;points=[];autosize=1;strokeColor=none;fillColor=none;" parent="WIyWlLk6GJQsqaUBKTNV-1" vertex="1">
          <mxGeometry x="-359" y="450" width="40" height="30" as="geometry" />
        </mxCell>
        <mxCell id="O3ppCup09V5jgGHMYTmA-17" value="No" style="text;html=1;align=center;verticalAlign=middle;resizable=0;points=[];autosize=1;strokeColor=none;fillColor=none;" parent="WIyWlLk6GJQsqaUBKTNV-1" vertex="1">
          <mxGeometry x="-361" y="617" width="40" height="30" as="geometry" />
        </mxCell>
        <mxCell id="O3ppCup09V5jgGHMYTmA-18" value="No" style="text;html=1;align=center;verticalAlign=middle;resizable=0;points=[];autosize=1;strokeColor=none;fillColor=none;" parent="WIyWlLk6GJQsqaUBKTNV-1" vertex="1">
          <mxGeometry x="-361" y="771" width="40" height="30" as="geometry" />
        </mxCell>
        <mxCell id="O3ppCup09V5jgGHMYTmA-19" value="" style="endArrow=classic;html=1;rounded=0;entryX=0.5;entryY=0;entryDx=0;entryDy=0;exitX=0.5;exitY=1;exitDx=0;exitDy=0;" parent="WIyWlLk6GJQsqaUBKTNV-1" source="O3ppCup09V5jgGHMYTmA-7" target="O3ppCup09V5jgGHMYTmA-8" edge="1">
          <mxGeometry width="50" height="50" relative="1" as="geometry">
            <mxPoint x="-279" y="530" as="sourcePoint" />
            <mxPoint x="-229" y="480" as="targetPoint" />
          </mxGeometry>
        </mxCell>
        <mxCell id="O3ppCup09V5jgGHMYTmA-20" value="" style="endArrow=classic;html=1;rounded=0;exitX=0.975;exitY=0.353;exitDx=0;exitDy=0;entryX=0.5;entryY=0;entryDx=0;entryDy=0;exitPerimeter=0;" parent="WIyWlLk6GJQsqaUBKTNV-1" source="O3ppCup09V5jgGHMYTmA-23" target="O3ppCup09V5jgGHMYTmA-9" edge="1">
          <mxGeometry width="50" height="50" relative="1" as="geometry">
            <mxPoint x="-269.91" y="679" as="sourcePoint" />
            <mxPoint x="-269" y="750" as="targetPoint" />
          </mxGeometry>
        </mxCell>
        <mxCell id="O3ppCup09V5jgGHMYTmA-21" value="" style="endArrow=classic;html=1;rounded=0;exitX=0.5;exitY=1;exitDx=0;exitDy=0;" parent="WIyWlLk6GJQsqaUBKTNV-1" edge="1">
          <mxGeometry width="50" height="50" relative="1" as="geometry">
            <mxPoint x="-269.91" y="389" as="sourcePoint" />
            <mxPoint x="-270" y="440" as="targetPoint" />
          </mxGeometry>
        </mxCell>
        <mxCell id="O3ppCup09V5jgGHMYTmA-22" value="Yes" style="text;html=1;align=center;verticalAlign=middle;resizable=0;points=[];autosize=1;strokeColor=none;fillColor=none;" parent="WIyWlLk6GJQsqaUBKTNV-1" vertex="1">
          <mxGeometry x="-309" y="515" width="40" height="30" as="geometry" />
        </mxCell>
        <mxCell id="O3ppCup09V5jgGHMYTmA-23" value="Yes" style="text;html=1;align=center;verticalAlign=middle;resizable=0;points=[];autosize=1;strokeColor=none;fillColor=none;" parent="WIyWlLk6GJQsqaUBKTNV-1" vertex="1">
          <mxGeometry x="-309" y="671" width="40" height="30" as="geometry" />
        </mxCell>
        <mxCell id="O3ppCup09V5jgGHMYTmA-24" value="Yes" style="text;html=1;align=center;verticalAlign=middle;resizable=0;points=[];autosize=1;strokeColor=none;fillColor=none;" parent="WIyWlLk6GJQsqaUBKTNV-1" vertex="1">
          <mxGeometry x="-309" y="830" width="40" height="30" as="geometry" />
        </mxCell>
        <mxCell id="O3ppCup09V5jgGHMYTmA-25" value="" style="endArrow=classic;html=1;rounded=0;exitX=0.992;exitY=0.233;exitDx=0;exitDy=0;exitPerimeter=0;" parent="WIyWlLk6GJQsqaUBKTNV-1" source="O3ppCup09V5jgGHMYTmA-24" edge="1">
          <mxGeometry width="50" height="50" relative="1" as="geometry">
            <mxPoint x="-339" y="840" as="sourcePoint" />
            <mxPoint x="-269" y="900" as="targetPoint" />
          </mxGeometry>
        </mxCell>
        <mxCell id="O3ppCup09V5jgGHMYTmA-27" value="Calculate?" style="rhombus;whiteSpace=wrap;html=1;shadow=0;fontFamily=Helvetica;fontSize=15;align=center;strokeWidth=1;spacing=6;spacingTop=-4;" parent="WIyWlLk6GJQsqaUBKTNV-1" vertex="1">
          <mxGeometry x="-321" y="977" width="100" height="80" as="geometry" />
        </mxCell>
        <mxCell id="O3ppCup09V5jgGHMYTmA-28" value="" style="endArrow=classic;html=1;rounded=0;exitX=0.5;exitY=1;exitDx=0;exitDy=0;entryX=0.5;entryY=0;entryDx=0;entryDy=0;" parent="WIyWlLk6GJQsqaUBKTNV-1" source="O3ppCup09V5jgGHMYTmA-5" target="O3ppCup09V5jgGHMYTmA-27" edge="1">
          <mxGeometry width="50" height="50" relative="1" as="geometry">
            <mxPoint x="-259" y="847" as="sourcePoint" />
            <mxPoint x="-259" y="910" as="targetPoint" />
          </mxGeometry>
        </mxCell>
        <mxCell id="O3ppCup09V5jgGHMYTmA-29" value="" style="endArrow=classic;html=1;rounded=0;entryX=0;entryY=0.5;entryDx=0;entryDy=0;exitX=0;exitY=0.5;exitDx=0;exitDy=0;edgeStyle=orthogonalEdgeStyle;" parent="WIyWlLk6GJQsqaUBKTNV-1" source="O3ppCup09V5jgGHMYTmA-27" target="O3ppCup09V5jgGHMYTmA-5" edge="1">
          <mxGeometry width="50" height="50" relative="1" as="geometry">
            <mxPoint x="-129" y="780" as="sourcePoint" />
            <mxPoint x="-79" y="730" as="targetPoint" />
            <Array as="points">
              <mxPoint x="-359" y="1017" />
              <mxPoint x="-359" y="924" />
            </Array>
          </mxGeometry>
        </mxCell>
        <mxCell id="O3ppCup09V5jgGHMYTmA-30" value="No" style="text;html=1;align=center;verticalAlign=middle;resizable=0;points=[];autosize=1;strokeColor=none;fillColor=none;" parent="WIyWlLk6GJQsqaUBKTNV-1" vertex="1">
          <mxGeometry x="-359" y="985" width="40" height="30" as="geometry" />
        </mxCell>
        <mxCell id="O3ppCup09V5jgGHMYTmA-32" value="Yes" style="text;html=1;align=center;verticalAlign=middle;resizable=0;points=[];autosize=1;strokeColor=none;fillColor=none;" parent="WIyWlLk6GJQsqaUBKTNV-1" vertex="1">
          <mxGeometry x="-339" y="1033" width="40" height="30" as="geometry" />
        </mxCell>
        <mxCell id="O3ppCup09V5jgGHMYTmA-33" value="" style="endArrow=classic;html=1;rounded=0;entryX=0.162;entryY=-0.046;entryDx=0;entryDy=0;entryPerimeter=0;exitX=0.5;exitY=1;exitDx=0;exitDy=0;edgeStyle=orthogonalEdgeStyle;" parent="WIyWlLk6GJQsqaUBKTNV-1" source="O3ppCup09V5jgGHMYTmA-27" target="WIyWlLk6GJQsqaUBKTNV-3" edge="1">
          <mxGeometry width="50" height="50" relative="1" as="geometry">
            <mxPoint x="-380" y="610" as="sourcePoint" />
            <mxPoint x="-330" y="560" as="targetPoint" />
            <Array as="points">
              <mxPoint x="-271" y="1240" />
              <mxPoint x="-530" y="1240" />
              <mxPoint x="-530" y="40" />
              <mxPoint x="179" y="40" />
            </Array>
          </mxGeometry>
        </mxCell>
        <mxCell id="O3ppCup09V5jgGHMYTmA-35" value="" style="endArrow=none;html=1;rounded=0;entryX=0;entryY=0.5;entryDx=0;entryDy=0;" parent="WIyWlLk6GJQsqaUBKTNV-1" target="CgVU10pBGHFMZxcEaCjF-62" edge="1">
          <mxGeometry width="50" height="50" relative="1" as="geometry">
            <mxPoint x="-320" y="1240" as="sourcePoint" />
            <mxPoint x="-330" y="710" as="targetPoint" />
          </mxGeometry>
        </mxCell>
        <mxCell id="O3ppCup09V5jgGHMYTmA-36" value="WrInit" style="rhombus;whiteSpace=wrap;html=1;shadow=0;fontFamily=Helvetica;fontSize=15;align=center;strokeWidth=1;spacing=6;spacingTop=-4;" parent="WIyWlLk6GJQsqaUBKTNV-1" vertex="1">
          <mxGeometry x="916" y="224.5" width="100" height="80" as="geometry" />
        </mxCell>
        <mxCell id="O3ppCup09V5jgGHMYTmA-37" value="" style="endArrow=classic;html=1;rounded=0;entryX=0.5;entryY=0;entryDx=0;entryDy=0;exitX=0.5;exitY=1;exitDx=0;exitDy=0;" parent="WIyWlLk6GJQsqaUBKTNV-1" source="O3ppCup09V5jgGHMYTmA-36" target="O3ppCup09V5jgGHMYTmA-39" edge="1">
          <mxGeometry width="50" height="50" relative="1" as="geometry">
            <mxPoint x="916" y="284.07" as="sourcePoint" />
            <mxPoint x="806" y="284.07" as="targetPoint" />
          </mxGeometry>
        </mxCell>
        <mxCell id="O3ppCup09V5jgGHMYTmA-38" value="1" style="text;html=1;align=center;verticalAlign=middle;resizable=0;points=[];autosize=1;strokeColor=none;fillColor=none;" parent="WIyWlLk6GJQsqaUBKTNV-1" vertex="1">
          <mxGeometry x="961" y="300.5" width="30" height="30" as="geometry" />
        </mxCell>
        <mxCell id="O3ppCup09V5jgGHMYTmA-39" value="Ef" style="rounded=1;whiteSpace=wrap;html=1;fontSize=15;glass=0;strokeWidth=1;shadow=0;" parent="WIyWlLk6GJQsqaUBKTNV-1" vertex="1">
          <mxGeometry x="906" y="344.5" width="120" height="40" as="geometry" />
        </mxCell>
        <mxCell id="O3ppCup09V5jgGHMYTmA-40" value="W1" style="text;html=1;align=center;verticalAlign=middle;resizable=0;points=[];autosize=1;strokeColor=none;fillColor=none;" parent="WIyWlLk6GJQsqaUBKTNV-1" vertex="1">
          <mxGeometry x="866" y="344.5" width="40" height="30" as="geometry" />
        </mxCell>
        <mxCell id="O3ppCup09V5jgGHMYTmA-41" value="write_done" style="rounded=1;whiteSpace=wrap;html=1;fontSize=15;glass=0;strokeWidth=1;shadow=0;" parent="WIyWlLk6GJQsqaUBKTNV-1" vertex="1">
          <mxGeometry x="906" y="898.5" width="120" height="40" as="geometry" />
        </mxCell>
        <mxCell id="O3ppCup09V5jgGHMYTmA-42" value="W2" style="text;html=1;align=center;verticalAlign=middle;resizable=0;points=[];autosize=1;strokeColor=none;fillColor=none;" parent="WIyWlLk6GJQsqaUBKTNV-1" vertex="1">
          <mxGeometry x="866" y="904" width="40" height="30" as="geometry" />
        </mxCell>
        <mxCell id="O3ppCup09V5jgGHMYTmA-43" value="zcol" style="rhombus;whiteSpace=wrap;html=1;shadow=0;fontFamily=Helvetica;fontSize=15;align=center;strokeWidth=1;spacing=6;spacingTop=-4;" parent="WIyWlLk6GJQsqaUBKTNV-1" vertex="1">
          <mxGeometry x="916" y="434.5" width="100" height="80" as="geometry" />
        </mxCell>
        <mxCell id="O3ppCup09V5jgGHMYTmA-44" value="zrow" style="rhombus;whiteSpace=wrap;html=1;shadow=0;fontFamily=Helvetica;fontSize=15;align=center;strokeWidth=1;spacing=6;spacingTop=-4;" parent="WIyWlLk6GJQsqaUBKTNV-1" vertex="1">
          <mxGeometry x="916" y="596.5" width="100" height="80" as="geometry" />
        </mxCell>
        <mxCell id="O3ppCup09V5jgGHMYTmA-45" value="zl" style="rhombus;whiteSpace=wrap;html=1;shadow=0;fontFamily=Helvetica;fontSize=15;align=center;strokeWidth=1;spacing=6;spacingTop=-4;" parent="WIyWlLk6GJQsqaUBKTNV-1" vertex="1">
          <mxGeometry x="916" y="750.5" width="100" height="80" as="geometry" />
        </mxCell>
        <mxCell id="O3ppCup09V5jgGHMYTmA-46" value="" style="endArrow=classic;html=1;rounded=0;entryX=1.001;entryY=0.895;entryDx=0;entryDy=0;edgeStyle=orthogonalEdgeStyle;entryPerimeter=0;" parent="WIyWlLk6GJQsqaUBKTNV-1" source="O3ppCup09V5jgGHMYTmA-43" target="O3ppCup09V5jgGHMYTmA-39" edge="1">
          <mxGeometry width="50" height="50" relative="1" as="geometry">
            <mxPoint x="1026" y="474.5" as="sourcePoint" />
            <mxPoint x="1036" y="374.5" as="targetPoint" />
            <Array as="points">
              <mxPoint x="1086" y="475" />
              <mxPoint x="1086" y="380" />
              <mxPoint x="1040" y="380" />
            </Array>
          </mxGeometry>
        </mxCell>
        <mxCell id="O3ppCup09V5jgGHMYTmA-49" value="0" style="text;html=1;align=center;verticalAlign=middle;resizable=0;points=[];autosize=1;strokeColor=none;fillColor=none;" parent="WIyWlLk6GJQsqaUBKTNV-1" vertex="1">
          <mxGeometry x="1014" y="450" width="30" height="30" as="geometry" />
        </mxCell>
        <mxCell id="O3ppCup09V5jgGHMYTmA-50" value="0" style="text;html=1;align=center;verticalAlign=middle;resizable=0;points=[];autosize=1;strokeColor=none;fillColor=none;" parent="WIyWlLk6GJQsqaUBKTNV-1" vertex="1">
          <mxGeometry x="1026" y="606.5" width="30" height="30" as="geometry" />
        </mxCell>
        <mxCell id="O3ppCup09V5jgGHMYTmA-51" value="0" style="text;html=1;align=center;verticalAlign=middle;resizable=0;points=[];autosize=1;strokeColor=none;fillColor=none;" parent="WIyWlLk6GJQsqaUBKTNV-1" vertex="1">
          <mxGeometry x="1026" y="759" width="30" height="30" as="geometry" />
        </mxCell>
        <mxCell id="O3ppCup09V5jgGHMYTmA-52" value="" style="endArrow=classic;html=1;rounded=0;entryX=0.5;entryY=0;entryDx=0;entryDy=0;exitX=0.5;exitY=1;exitDx=0;exitDy=0;" parent="WIyWlLk6GJQsqaUBKTNV-1" source="O3ppCup09V5jgGHMYTmA-43" target="O3ppCup09V5jgGHMYTmA-44" edge="1">
          <mxGeometry width="50" height="50" relative="1" as="geometry">
            <mxPoint x="956" y="524.5" as="sourcePoint" />
            <mxPoint x="1006" y="474.5" as="targetPoint" />
          </mxGeometry>
        </mxCell>
        <mxCell id="O3ppCup09V5jgGHMYTmA-53" value="" style="endArrow=classic;html=1;rounded=0;entryX=0.5;entryY=0;entryDx=0;entryDy=0;exitX=0.5;exitY=1;exitDx=0;exitDy=0;" parent="WIyWlLk6GJQsqaUBKTNV-1" source="O3ppCup09V5jgGHMYTmA-44" target="O3ppCup09V5jgGHMYTmA-45" edge="1">
          <mxGeometry width="50" height="50" relative="1" as="geometry">
            <mxPoint x="966" y="680" as="sourcePoint" />
            <mxPoint x="966" y="744.5" as="targetPoint" />
          </mxGeometry>
        </mxCell>
        <mxCell id="O3ppCup09V5jgGHMYTmA-54" value="" style="endArrow=classic;html=1;rounded=0;exitX=0.5;exitY=1;exitDx=0;exitDy=0;" parent="WIyWlLk6GJQsqaUBKTNV-1" edge="1">
          <mxGeometry width="50" height="50" relative="1" as="geometry">
            <mxPoint x="965.0899999999999" y="383.5" as="sourcePoint" />
            <mxPoint x="965" y="434.5" as="targetPoint" />
          </mxGeometry>
        </mxCell>
        <mxCell id="O3ppCup09V5jgGHMYTmA-55" value="1" style="text;html=1;align=center;verticalAlign=middle;resizable=0;points=[];autosize=1;strokeColor=none;fillColor=none;" parent="WIyWlLk6GJQsqaUBKTNV-1" vertex="1">
          <mxGeometry x="962" y="509.5" width="30" height="30" as="geometry" />
        </mxCell>
        <mxCell id="O3ppCup09V5jgGHMYTmA-56" value="1" style="text;html=1;align=center;verticalAlign=middle;resizable=0;points=[];autosize=1;strokeColor=none;fillColor=none;" parent="WIyWlLk6GJQsqaUBKTNV-1" vertex="1">
          <mxGeometry x="962" y="668.5" width="30" height="30" as="geometry" />
        </mxCell>
        <mxCell id="O3ppCup09V5jgGHMYTmA-57" value="1" style="text;html=1;align=center;verticalAlign=middle;resizable=0;points=[];autosize=1;strokeColor=none;fillColor=none;" parent="WIyWlLk6GJQsqaUBKTNV-1" vertex="1">
          <mxGeometry x="961" y="825.5" width="30" height="30" as="geometry" />
        </mxCell>
        <mxCell id="O3ppCup09V5jgGHMYTmA-58" value="" style="endArrow=classic;html=1;rounded=0;exitX=0.5;exitY=1;exitDx=0;exitDy=0;" parent="WIyWlLk6GJQsqaUBKTNV-1" source="O3ppCup09V5jgGHMYTmA-45" edge="1">
          <mxGeometry width="50" height="50" relative="1" as="geometry">
            <mxPoint x="966" y="840" as="sourcePoint" />
            <mxPoint x="966" y="894.5" as="targetPoint" />
          </mxGeometry>
        </mxCell>
        <mxCell id="O3ppCup09V5jgGHMYTmA-59" value="calc" style="rhombus;whiteSpace=wrap;html=1;shadow=0;fontFamily=Helvetica;fontSize=15;align=center;strokeWidth=1;spacing=6;spacingTop=-4;" parent="WIyWlLk6GJQsqaUBKTNV-1" vertex="1">
          <mxGeometry x="914" y="971.5" width="100" height="80" as="geometry" />
        </mxCell>
        <mxCell id="O3ppCup09V5jgGHMYTmA-60" value="" style="endArrow=classic;html=1;rounded=0;exitX=0.5;exitY=1;exitDx=0;exitDy=0;entryX=0.5;entryY=0;entryDx=0;entryDy=0;" parent="WIyWlLk6GJQsqaUBKTNV-1" source="O3ppCup09V5jgGHMYTmA-41" target="O3ppCup09V5jgGHMYTmA-59" edge="1">
          <mxGeometry width="50" height="50" relative="1" as="geometry">
            <mxPoint x="976" y="841.5" as="sourcePoint" />
            <mxPoint x="976" y="904.5" as="targetPoint" />
          </mxGeometry>
        </mxCell>
        <mxCell id="O3ppCup09V5jgGHMYTmA-61" value="" style="endArrow=classic;html=1;rounded=0;exitX=1;exitY=0.5;exitDx=0;exitDy=0;edgeStyle=orthogonalEdgeStyle;" parent="WIyWlLk6GJQsqaUBKTNV-1" source="O3ppCup09V5jgGHMYTmA-59" edge="1">
          <mxGeometry width="50" height="50" relative="1" as="geometry">
            <mxPoint x="1106" y="774.5" as="sourcePoint" />
            <mxPoint x="1026" y="920" as="targetPoint" />
            <Array as="points">
              <mxPoint x="1086" y="1012" />
              <mxPoint x="1086" y="920" />
            </Array>
          </mxGeometry>
        </mxCell>
        <mxCell id="O3ppCup09V5jgGHMYTmA-62" value="0" style="text;html=1;align=center;verticalAlign=middle;resizable=0;points=[];autosize=1;strokeColor=none;fillColor=none;" parent="WIyWlLk6GJQsqaUBKTNV-1" vertex="1">
          <mxGeometry x="1014" y="985" width="30" height="30" as="geometry" />
        </mxCell>
        <mxCell id="O3ppCup09V5jgGHMYTmA-63" value="1" style="text;html=1;align=center;verticalAlign=middle;resizable=0;points=[];autosize=1;strokeColor=none;fillColor=none;" parent="WIyWlLk6GJQsqaUBKTNV-1" vertex="1">
          <mxGeometry x="961" y="1039.5" width="30" height="30" as="geometry" />
        </mxCell>
        <mxCell id="O3ppCup09V5jgGHMYTmA-64" value="" style="endArrow=classic;html=1;rounded=0;entryX=0.5;entryY=0;entryDx=0;entryDy=0;exitX=1;exitY=0.5;exitDx=0;exitDy=0;edgeStyle=orthogonalEdgeStyle;" parent="WIyWlLk6GJQsqaUBKTNV-1" source="CgVU10pBGHFMZxcEaCjF-73" target="O3ppCup09V5jgGHMYTmA-36" edge="1">
          <mxGeometry width="50" height="50" relative="1" as="geometry">
            <mxPoint x="650" y="290" as="sourcePoint" />
            <mxPoint x="700" y="240" as="targetPoint" />
          </mxGeometry>
        </mxCell>
        <mxCell id="O3ppCup09V5jgGHMYTmA-66" value="" style="endArrow=none;html=1;rounded=0;exitX=1;exitY=0.5;exitDx=0;exitDy=0;" parent="WIyWlLk6GJQsqaUBKTNV-1" source="CgVU10pBGHFMZxcEaCjF-124" edge="1">
          <mxGeometry width="50" height="50" relative="1" as="geometry">
            <mxPoint x="620" y="430" as="sourcePoint" />
            <mxPoint x="1010" y="1240" as="targetPoint" />
            <Array as="points">
              <mxPoint x="880" y="1240" />
            </Array>
          </mxGeometry>
        </mxCell>
        <mxCell id="O3ppCup09V5jgGHMYTmA-67" value="Ecol" style="ellipse;whiteSpace=wrap;html=1;fontSize=15;" parent="WIyWlLk6GJQsqaUBKTNV-1" vertex="1">
          <mxGeometry x="1044" y="390" width="90" height="55" as="geometry" />
        </mxCell>
        <mxCell id="O3ppCup09V5jgGHMYTmA-69" value="El" style="ellipse;whiteSpace=wrap;html=1;fontSize=15;" parent="WIyWlLk6GJQsqaUBKTNV-1" vertex="1">
          <mxGeometry x="1146" y="641.5" width="90" height="55" as="geometry" />
        </mxCell>
        <mxCell id="O3ppCup09V5jgGHMYTmA-72" value="col++" style="ellipse;whiteSpace=wrap;html=1;fontSize=15;" parent="WIyWlLk6GJQsqaUBKTNV-1" vertex="1">
          <mxGeometry x="-411" y="400" width="90" height="55" as="geometry" />
        </mxCell>
        <mxCell id="O3ppCup09V5jgGHMYTmA-76" value="col=0,enque" style="ellipse;whiteSpace=wrap;html=1;fontSize=15;" parent="WIyWlLk6GJQsqaUBKTNV-1" vertex="1">
          <mxGeometry x="-314" y="539.5" width="90" height="37" as="geometry" />
        </mxCell>
        <mxCell id="O3ppCup09V5jgGHMYTmA-77" value="row=0" style="ellipse;whiteSpace=wrap;html=1;fontSize=15;" parent="WIyWlLk6GJQsqaUBKTNV-1" vertex="1">
          <mxGeometry x="-314" y="697" width="90" height="37" as="geometry" />
        </mxCell>
        <mxCell id="O3ppCup09V5jgGHMYTmA-78" value="Lcol,Wr" style="ellipse;whiteSpace=wrap;html=1;fontSize=15;" parent="WIyWlLk6GJQsqaUBKTNV-1" vertex="1">
          <mxGeometry x="921" y="539.5" width="90" height="37" as="geometry" />
        </mxCell>
        <mxCell id="74lIT181JPH_ULcOrl8A-0" value="" style="endArrow=classic;html=1;rounded=0;edgeStyle=orthogonalEdgeStyle;entryX=0;entryY=0.5;entryDx=0;entryDy=0;exitX=0;exitY=0.5;exitDx=0;exitDy=0;" edge="1" parent="WIyWlLk6GJQsqaUBKTNV-1" source="O3ppCup09V5jgGHMYTmA-8" target="O3ppCup09V5jgGHMYTmA-3">
          <mxGeometry width="50" height="50" relative="1" as="geometry">
            <mxPoint x="-400" y="570" as="sourcePoint" />
            <mxPoint x="-350" y="520" as="targetPoint" />
            <Array as="points">
              <mxPoint x="-420" y="642" />
              <mxPoint x="-420" y="370" />
            </Array>
          </mxGeometry>
        </mxCell>
        <mxCell id="O3ppCup09V5jgGHMYTmA-79" value="Lrow" style="ellipse;whiteSpace=wrap;html=1;fontSize=15;" parent="WIyWlLk6GJQsqaUBKTNV-1" vertex="1">
          <mxGeometry x="924" y="695" width="90" height="37" as="geometry" />
        </mxCell>
        <mxCell id="O3ppCup09V5jgGHMYTmA-73" value="row++" style="ellipse;whiteSpace=wrap;html=1;fontSize=15;" parent="WIyWlLk6GJQsqaUBKTNV-1" vertex="1">
          <mxGeometry x="-466" y="494" width="90" height="55" as="geometry" />
        </mxCell>
        <mxCell id="74lIT181JPH_ULcOrl8A-1" value="" style="endArrow=classic;html=1;rounded=0;edgeStyle=orthogonalEdgeStyle;entryX=0;entryY=0.25;entryDx=0;entryDy=0;exitX=0;exitY=0.5;exitDx=0;exitDy=0;" edge="1" parent="WIyWlLk6GJQsqaUBKTNV-1" source="O3ppCup09V5jgGHMYTmA-9" target="O3ppCup09V5jgGHMYTmA-3">
          <mxGeometry width="50" height="50" relative="1" as="geometry">
            <mxPoint x="-400" y="570" as="sourcePoint" />
            <mxPoint x="-350" y="520" as="targetPoint" />
            <Array as="points">
              <mxPoint x="-480" y="796" />
              <mxPoint x="-480" y="360" />
            </Array>
          </mxGeometry>
        </mxCell>
        <mxCell id="O3ppCup09V5jgGHMYTmA-75" value="l++" style="ellipse;whiteSpace=wrap;html=1;fontSize=15;" parent="WIyWlLk6GJQsqaUBKTNV-1" vertex="1">
          <mxGeometry x="-520" y="644" width="90" height="55" as="geometry" />
        </mxCell>
        <mxCell id="74lIT181JPH_ULcOrl8A-3" value="" style="endArrow=classic;html=1;rounded=0;edgeStyle=orthogonalEdgeStyle;exitX=1;exitY=0.5;exitDx=0;exitDy=0;" edge="1" parent="WIyWlLk6GJQsqaUBKTNV-1" source="O3ppCup09V5jgGHMYTmA-44">
          <mxGeometry width="50" height="50" relative="1" as="geometry">
            <mxPoint x="820" y="560" as="sourcePoint" />
            <mxPoint x="1026" y="365" as="targetPoint" />
            <Array as="points">
              <mxPoint x="1140" y="637" />
              <mxPoint x="1140" y="365" />
            </Array>
          </mxGeometry>
        </mxCell>
        <mxCell id="O3ppCup09V5jgGHMYTmA-68" value="Erow" style="ellipse;whiteSpace=wrap;html=1;fontSize=15;" parent="WIyWlLk6GJQsqaUBKTNV-1" vertex="1">
          <mxGeometry x="1094" y="480" width="90" height="55" as="geometry" />
        </mxCell>
      </root>
    </mxGraphModel>
  </diagram>
</mxfile>
